HIERARCHY
ROOT SpineBase
{
  OFFSET 0.000000 0.000000 0.000000
  CHANNELS 6 Xposition Yposition Zposition Zrotation Xrotation Yrotation
  JOINT SpineMid
  {
    OFFSET 0.000000 29.746896 0.000000
    CHANNELS 3 Zrotation Xrotation Yrotation
    JOINT SpineShoulder
    {
      OFFSET -0.165394 21.922113 -0.359292
      CHANNELS 3 Zrotation Xrotation Yrotation
      JOINT Neck
      {
        OFFSET 0.046344 7.222278 -0.533549
        CHANNELS 3 Zrotation Xrotation Yrotation
        JOINT Head
        {
          OFFSET 3.024023 13.650196 0.173246
          CHANNELS 3 Zrotation Xrotation Yrotation
          End Site
          {
            OFFSET 0 0 0
          }
        }
      }
      JOINT ShoulderLeft
      {
        OFFSET -11.240931 -2.205930 -11.462016
        CHANNELS 3 Zrotation Xrotation Yrotation
        JOINT ElbowLeft
        {
          OFFSET -4.992624 -26.044149 -2.369011
          CHANNELS 3 Zrotation Xrotation Yrotation
          JOINT WristLeft
          {
            OFFSET -0.305215 -23.291316 -1.715309
            CHANNELS 3 Zrotation Xrotation Yrotation
            JOINT HandLeft
            {
              OFFSET 0.693384 -4.052289 1.113208
              CHANNELS 3 Zrotation Xrotation Yrotation
              JOINT HandTipLeft
              {
                OFFSET -0.352637 -6.534524 0.406191
                CHANNELS 3 Zrotation Xrotation Yrotation
                End Site
                {
                  OFFSET 0 0 0
                }
              }
              JOINT ThumbLeft
              {
                OFFSET -4.660254 1.289321 -1.698021
                CHANNELS 3 Zrotation Xrotation Yrotation
                End Site
                {
                  OFFSET 0 0 0
                }
              }
            }
          }
        }
      }
      JOINT ShoulderRight
      {
        OFFSET 12.626723 -3.397121 9.588215
        CHANNELS 3 Zrotation Xrotation Yrotation
        JOINT ElbowRight
        {
          OFFSET -0.142875 -28.415944 6.597332
          CHANNELS 3 Zrotation Xrotation Yrotation
          JOINT WristRight
          {
            OFFSET 0.116040 -23.141152 -2.925990
            CHANNELS 3 Zrotation Xrotation Yrotation
            JOINT HandRight
            {
              OFFSET -2.085485 -3.866888 -2.329788
              CHANNELS 3 Zrotation Xrotation Yrotation
              JOINT HandTipRight
              {
                OFFSET -1.072797 -4.885061 -0.721550
                CHANNELS 3 Zrotation Xrotation Yrotation
                End Site
                {
                  OFFSET 0 0 0
                }
              }
              JOINT ThumbRight
              {
                OFFSET -0.733046 0.980168 -3.086549
                CHANNELS 3 Zrotation Xrotation Yrotation
                End Site
                {
                  OFFSET 0 0 0
                }
              }
            }
          }
        }
      }
    }
  }
  JOINT HipLeft
  {
    OFFSET -5.028775 1.976856 -7.035266
    CHANNELS 3 Zrotation Xrotation Yrotation
    JOINT KneeLeft
    {
      OFFSET -5.428838 -27.167946 -1.936832
      CHANNELS 3 Zrotation Xrotation Yrotation
      JOINT AnkleLeft
      {
        OFFSET -4.592922 -33.597839 1.889063
        CHANNELS 3 Zrotation Xrotation Yrotation
        JOINT FootLeft
        {
          OFFSET 4.274761 -7.679162 -1.213260
          CHANNELS 3 Zrotation Xrotation Yrotation
          End Site
          {
            OFFSET 0 0 0
          }
        }
      }
    }
  }
  JOINT HipRight
  {
    OFFSET 5.930511 0.128870 0.185230
    CHANNELS 3 Zrotation Xrotation Yrotation
    JOINT KneeRight
    {
      OFFSET -4.576784 -27.755591 4.605921
      CHANNELS 3 Zrotation Xrotation Yrotation
      JOINT AnkleRight
      {
        OFFSET -9.149375 -28.845954 -0.438112
        CHANNELS 3 Zrotation Xrotation Yrotation
        JOINT FootRight
        {
          OFFSET 2.807807 -8.112538 -2.509823
          CHANNELS 3 Zrotation Xrotation Yrotation
          End Site
          {
            OFFSET 0 0 0
          }
        }
      }
    }
  }
}
MOTION
Frames: 9
Frame Time: 0.033333
-41.751478 71.124944 327.189747 2.028520 2.321455 -39.425948 0.072293 -1.552366 39.415158 0.412269 0.497242 0.072788 7.127409 -2.895800 0.403524 0.000000 0.000000 0.000000 -120.171049 59.500807 71.199026 -23.678283 56.503684 106.011161 48.135991 45.496621 -109.753225 5.307775 -39.015720 170.837182 0.000000 0.000000 0.000000 0.000000 0.000000 0.000000 127.384380 -48.946725 106.242750 36.416813 -37.976330 -146.690938 112.737543 58.865705 31.938456 -83.977124 9.702584 -91.642306 0.000000 0.000000 0.000000 0.000000 0.000000 0.000000 1.385031 -2.377529 39.418255 -5.952592 -2.402575 0.099190 2.631747 9.141000 3.754980 0.000000 0.000000 0.000000 2.983210 -1.087047 40.170112 -6.084783 -1.005330 -0.166795 -13.303491 20.878315 14.102527 0.000000 0.000000 0.000000
-41.588253 70.994263 327.255116 2.131300 2.112203 -38.930992 0.236409 -1.678842 38.931786 0.440942 0.425950 0.089394 7.215518 -3.453107 0.639938 0.000000 0.000000 0.000000 -118.593301 58.583907 69.072767 -27.879805 58.513139 113.639743 52.121952 39.710945 -118.109414 7.254652 -39.342117 161.252349 0.000000 0.000000 0.000000 0.000000 0.000000 0.000000 128.460646 -49.508987 107.960931 42.550191 -40.552438 -168.448553 174.414921 80.275153 -27.026275 -84.556881 8.665979 -88.556187 0.000000 0.000000 0.000000 0.000000 0.000000 0.000000 1.083013 -2.194036 38.888028 -6.038678 -2.560322 0.110258 2.106542 10.059317 4.427967 0.000000 0.000000 0.000000 2.756399 -1.132262 39.671097 -5.709130 -1.326542 -0.045173 -20.528661 20.731048 17.723574 0.000000 0.000000 0.000000
-41.487647 70.917251 327.264477 2.198289 1.858476 -38.429404 0.403562 -1.809021 38.443231 0.516113 0.327198 0.108749 6.989449 -3.351835 0.679844 0.000000 0.000000 0.000000 -118.269803 57.795438 68.303451 -31.757814 60.019222 121.282620 54.798681 33.482510 -125.189112 9.324461 -39.508533 152.111241 0.000000 0.000000 0.000000 0.000000 0.000000 0.000000 128.839048 -50.848379 109.333516 51.045104 -44.939717 168.988589 -98.885640 57.421095 -108.773213 -83.497969 8.572814 -81.029250 0.000000 0.000000 0.000000 0.000000 0.000000 0.000000 0.866027 -1.956111 38.363292 -6.166774 -2.622588 0.116809 1.959715 10.537776 4.767641 0.000000 0.000000 0.000000 2.661101 -1.061357 39.197103 -5.491411 -1.636444 0.061386 -20.656732 22.396531 18.285377 0.000000 0.000000 0.000000
-41.371936 70.884136 327.278621 2.284867 1.554979 -38.131456 0.543498 -1.921792 38.158895 0.579774 0.260584 0.126698 6.726141 -2.955006 0.629264 0.000000 0.000000 0.000000 -118.302118 56.930482 67.799651 -35.792970 61.370979 129.981204 56.297224 28.589605 -129.414564 11.018094 -39.176260 143.547301 0.000000 0.000000 0.000000 0.000000 0.000000 0.000000 129.161635 -52.440079 110.813148 59.529309 -49.792748 151.356345 -88.809689 30.268034 -112.859157 -76.524357 9.930486 -64.017927 0.000000 0.000000 0.000000 0.000000 0.000000 0.000000 0.497885 -1.739804 38.041852 -6.260109 -2.587672 0.098179 2.855959 9.822738 4.236567 0.000000 0.000000 0.000000 2.492881 -0.905899 38.914133 -5.270166 -2.003161 0.174225 -18.434553 29.348526 19.941865 0.000000 0.000000 0.000000
-41.243732 70.871304 327.324352 2.392431 1.212581 -38.026992 0.641382 -2.003443 38.067889 0.625923 0.237835 0.142019 6.388955 -2.405097 0.526569 0.000000 0.000000 0.000000 -118.253334 56.015553 67.158172 -39.982928 62.444729 138.815880 56.487227 24.574111 -132.244000 11.585153 -37.278022 130.583934 0.000000 0.000000 0.000000 0.000000 0.000000 0.000000 130.127820 -53.763548 112.926670 66.624018 -53.968112 139.203813 -84.159783 12.456425 -111.537379 -65.573583 13.766837 -44.246086 0.000000 0.000000 0.000000 0.000000 0.000000 0.000000 0.012134 -1.508980 37.908550 -6.225168 -2.674570 0.090777 2.801615 9.990908 4.414244 0.000000 0.000000 0.000000 2.208792 -0.667646 38.800133 -5.134308 -2.383639 0.278948 -3.530925 38.292818 13.766865 0.000000 0.000000 0.000000
-41.127589 70.883036 327.337634 2.495858 0.925851 -37.930543 0.677960 -2.032023 37.981548 0.648211 0.246723 0.152489 6.093853 -2.008451 0.449959 0.000000 0.000000 0.000000 -118.515339 55.276418 66.871312 -43.062899 62.919691 145.426393 52.350042 20.288402 -135.820891 9.642151 -31.566443 113.469332 0.000000 0.000000 0.000000 0.000000 0.000000 0.000000 131.265328 -54.725122 115.034786 70.536205 -56.145890 134.327281 -73.701185 9.412092 -110.156720 -54.903479 12.747511 -45.282567 0.000000 0.000000 0.000000 0.000000 0.000000 0.000000 -0.459159 -1.362137 37.793116 -6.125585 -2.689103 0.074686 2.673453 9.983634 4.543780 0.000000 0.000000 0.000000 2.009039 -0.486908 38.709970 -5.062147 -2.558821 0.326811 7.007459 43.252442 8.261822 0.000000 0.000000 0.000000
-41.028457 70.897305 327.320090 2.582199 0.721438 -37.829912 0.638315 -1.988747 37.885664 0.642506 0.296710 0.156642 5.953721 -2.107352 0.490630 0.000000 0.000000 0.000000 -119.005185 54.836308 66.931786 -44.570744 62.976224 149.194304 47.233216 16.422781 -140.281548 7.498551 -28.300595 112.124756 0.000000 0.000000 0.000000 0.000000 0.000000 0.000000 132.484271 -55.162045 116.924042 69.608641 -56.260518 134.202133 -66.046925 18.627654 -112.480158 -45.959132 10.396810 -50.231532 0.000000 0.000000 0.000000 0.000000 0.000000 0.000000 -0.785843 -1.268127 37.682953 -6.257258 -2.489422 0.029366 3.651169 8.636713 3.772260 0.000000 0.000000 0.000000 1.902516 -0.395523 38.627809 -5.067055 -2.525314 0.320213 13.608881 38.168896 2.749604 0.000000 0.000000 0.000000
-40.965278 70.928059 327.255848 2.617829 0.677124 -37.806630 0.491344 -1.859103 37.857462 0.598226 0.384126 0.150250 6.119718 -2.978391 0.717572 0.000000 0.000000 0.000000 -119.415629 54.850220 67.169069 -44.259617 62.616941 149.060636 41.449595 12.765208 -145.905970 5.026906 -27.229957 121.225060 0.000000 0.000000 0.000000 0.000000 0.000000 0.000000 133.614527 -54.898155 118.236859 66.755519 -55.156839 136.316970 -57.067345 36.606036 -121.541034 -38.060249 7.927418 -60.751220 0.000000 0.000000 0.000000 0.000000 0.000000 0.000000 -0.834331 -1.312016 37.672129 -6.538098 -2.127339 -0.029718 1.555060 2.660483 1.105548 0.000000 0.000000 0.000000 1.990791 -0.439603 38.643754 -5.042974 -2.596504 0.356593 21.192850 40.663651 -1.564154 0.000000 0.000000 0.000000
-40.939563 70.962011 327.156138 2.636692 0.682228 -37.894106 0.447966 -1.787103 37.943185 0.585608 0.364149 0.150674 6.175364 -3.214637 0.777259 0.000000 0.000000 0.000000 -120.935475 55.200785 68.807553 -42.150451 62.171241 146.505890 36.157550 8.802920 -153.237738 3.588297 -27.591967 132.447687 0.000000 0.000000 0.000000 0.000000 0.000000 0.000000 133.804116 -54.224756 118.096080 60.610167 -51.868187 143.888006 -51.661438 50.644540 -134.413159 -43.286309 7.749364 -75.045303 0.000000 0.000000 0.000000 0.000000 0.000000 0.000000 -0.653213 -1.420943 37.797043 -6.707525 -1.936976 -0.046294 1.649444 4.094412 1.959794 0.000000 0.000000 0.000000 2.158342 -0.516410 38.781167 -5.261431 -2.356882 0.300918 22.488609 41.930170 -2.032657 0.000000 0.000000 0.000000
